<?xml version="1.0" standalone="no"?>
<!DOCTYPE svg PUBLIC "-//W3C//DTD SVG 1.1//EN" "http://www.w3.org/Graphics/SVG/1.1/DTD/svg11.dtd" >
<svg xmlns="http://www.w3.org/2000/svg">
<metadata>Generated by IcoMoon</metadata>
<defs>
<font id="icomoon" horiz-adv-x="1024">
<font-face units-per-em="1024" ascent="960" descent="-64" />
<missing-glyph horiz-adv-x="1024" />
<glyph unicode="&#x20;" horiz-adv-x="512" d="" />
<glyph unicode="&#xe900;" glyph-name="p24" horiz-adv-x="2912" d="M624.152 373.486l238.324 0.305-8.686-54.248-199.314-190.324 167.314 0.305-9.752-58.514-246.4-0.152 10.362 60.495 191.086 183.010h-152.533l9.6 59.124zM363.429 466.286c-5.181 5.486-12.648 9.752-20.876 13.105-8.686 3.352-18.286 5.79-27.733 7.467-11.886 2.133-23.467 3.048-31.695 3.352-7.619 0.305-12.495 0.305-12.495 0.305h-181.79l-69.486-419.657h64.914l25.6 155.429 125.867-0.61c0 0 49.067-1.981 83.81 16.457s44.038 60.343 44.038 60.343 3.81 15.543 7.010 34.438c3.505 20.876 7.010 45.867 8.838 59.124 0.762 5.79 1.219 9.448 1.219 9.448s0.914 4.267 0.914 10.971c0.152 9.295-1.219 23.314-8.533 36.724-2.59 4.724-5.638 8.99-9.6 13.105zM313.448 392.229c0-0.762-5.79-34.438-13.41-74.362-2.895-15.238-14.629-23.467-28.038-26.362-22.248-4.724-46.171-3.81-46.171-3.81l-105.143 0.305 23.162 139.429 95.238-0.305c0 0 6.4 0.152 15.39 0 10.21-0.152 23.771-0.61 34.895-2.133 9.6-1.219 17.219-3.2 19.657-6.248 3.2-3.962 4.419-9.143 4.876-13.714 0.61-6.705-0.457-12.343-0.457-12.8zM1185.676 490.514h62.476l-69.943-419.657-62.629 0.152 70.095 419.505zM1519.086 373.486l59.886 0.152 21.181-213.029 92.19 213.333 73.905-0.152 21.79-213.943 92.038 213.79h62.171l-131.962-302.476h-73.752l-21.333 211.81-93.105-211.81-72.533-0.305-30.476 302.629zM1070.324 371.048c-17.524 5.638-47.848 6.857-73.6 6.552-24.838-0.305-36.267-1.524-45.562-3.505 0 0-44.19-6.4-69.333-37.486s-32.61-99.048-32.61-99.048-14.933-75.124-10.514-100.267c4.419-24.99 12.19-48.305 40.533-59.124 28.343-10.971 52.419-10.362 52.419-10.362s50.59-3.962 88.686 5.029c38.095 8.99 58.21 35.81 58.21 35.81s8.99 11.581 15.39 25.295c6.4 13.714 8.381 23.314 8.686 24.533l3.962 16.305-64.762-0.152c0 0-3.505-42.819-38.552-46.781-34.895-3.962-53.638-2.438-60.495-2.133-6.705 0.305-44.19-1.371-41.143 30.019 0 0.457 0 1.067 0.152 1.981 1.676 35.657 5.638 44.952 5.638 44.952l203.429 0.61 8.686 50.286c10.057 56.99 2.895 100.419-49.219 117.486zM1056.762 260.724l-139.429 0.152 5.486 22.095c0 0 4.876 17.371 14.476 24.686 9.752 7.314 22.095 8.686 33.676 9.752s42.514 3.352 67.657-1.829c8.381-1.676 16.305-6.4 18.438-13.41 4.876-16.457-0.305-41.448-0.305-41.448zM902.095 157.105c0-0.457-0.152-0.914-0.152-1.371-0.152-2.438 0.152 1.524 0.152 1.371zM1285.79 156.952c0-0.457-0.152-0.914-0.152-1.371 0-2.438 0.152 1.524 0.152 1.371zM1454.171 370.895c-17.524 5.638-47.848 6.857-73.6 6.552-24.838-0.305-36.267-1.524-45.562-3.505 0 0-44.19-6.4-69.333-37.486s-32.61-99.048-32.61-99.048-14.933-75.124-10.514-100.267c4.419-24.99 12.19-48.305 40.533-59.124 28.343-10.971 52.419-10.362 52.419-10.362s50.59-3.962 88.686 5.029c38.095 8.99 58.21 35.81 58.21 35.81s8.99 11.581 15.39 25.295c6.4 13.714 8.381 23.314 8.686 24.533l3.962 16.305-64.762-0.152c0 0-3.505-42.819-38.552-46.781-34.895-3.962-53.638-2.438-60.495-2.286-6.705 0.305-44.19-1.219-41.143 30.019 0 0.457 0 1.067 0.152 1.981 1.676 35.657 5.638 44.952 5.638 44.952l203.429 0.61 8.686 50.286c10.057 57.143 2.895 100.724-49.219 117.638zM1440 260.724l-139.429 0.152 5.486 22.095c0 0 4.876 17.371 14.476 24.686s22.095 8.686 33.676 9.752c11.581 1.067 42.514 3.352 67.657-1.829 8.381-1.676 16.305-6.4 18.438-13.41 4.876-16.305-0.305-41.448-0.305-41.448zM2014.171 373.486l40.076-221.257 113.219 221.41 63.695-0.61-163.2-316.19c0 0-29.562-57.295-47.848-71.771s-29.562-21.029-44.495-22.552c-14.933-1.524-21.029-2.59-35.352 0l-15.238 2.743 9.448 56.533c0 0 25.295-4.724 40.229 1.219 15.086 5.943 27.124 31.543 27.124 31.543l7.619 12.8-58.971 306.286 63.695-0.152zM2254.324 343.467l65.676-0.152 3.962 25.448c0 0 7.010 46.019 22.705 54.857 5.029 2.895 13.105 5.486 22.4 7.162 17.219 3.048 39.010 3.352 56.838 2.743 27.276-0.914 37.638-1.219 65.371-4.419s20.724-30.019 20.724-30.019l-5.486-40.076c0 0-2.438-17.981-8.838-29.105-5.638-9.905-21.181-16.61-30.171-19.505-21.638-7.010-95.695-25.905-95.695-25.905l-58.21-16.762c0 0-35.81-10.362-55.771-32.457-20.114-22.248-28.038-47.39-30.781-60.495s-18.133-103.771-18.133-103.771l314.21-0.152 10.514 62.781-248.533-0.305 4.419 25.6c0 0 2.895 26.362 13.562 35.048 3.352 2.743 5.029 6.4 24.838 13.41 11.886 4.267 52.419 15.086 52.419 15.086l93.714 25.6c0 0 51.2 13.105 71.314 41.143 20.114 27.886 27.886 81.371 27.886 81.371s5.486 51.962 1.219 68.267c-4.114 16.305-19.505 35.81-38.248 44.19s-38.248 13.257-94.781 12.495c-56.533-0.762-84.571-3.352-113.219-14.019-28.648-10.514-45.257-29.714-55.771-56.838-11.429-25.752-18.133-81.219-18.133-81.219v0zM2845.867 226.743l44.038 263.924h-78.019l-242.895-260.876-10.971-66.133h212.419l-15.543-92.648 65.219-0.152 15.39 92.8 60.19-0.152 10.819 63.238h-60.648zM2780.952 226.59l-137.295 0.152 167.162 178.133-29.867-178.286zM501.181 455.924h200.076c0 0 44.8 36.267 76.648 59.581s89.752 60.038 89.752 60.038l-113.067 52.876c0 0-95.543-59.124-136.076-87.010-39.314-25.752-117.333-85.486-117.333-85.486v0zM931.2 612.876l-92.8 62.476c0 0 83.962 47.695 195.657 92.19 111.543 44.495 171.124 63.086 171.124 63.086l18.895-88.533c0 0-107.429-35.962-168.99-65.067-63.695-27.124-123.886-64.152-123.886-64.152v0zM1292.648 761.448l-16.152 90.667c0 0 114.59 30.476 219.429 49.981 104.99 19.505 244.114 28.8 244.114 28.8l-46.019-140.038c0 0-122.362 16.762-237.257 1.067-89.448-10.667-164.114-30.476-164.114-30.476v0zM1766.857 778.971l77.41 155.581c0 0 169.6 3.352 315.886-19.352 146.286-22.552 280.076-57.295 277.181-58.819l-370.895-193.981c0 0-86.705 54.857-194.286 88.533-60.952 17.981-105.295 28.038-105.295 28.038v0zM2132.876 620.19l81.524-61.867h670.019c0 0-1.371 21.638-19.2 52.419-11.124 19.2-31.39 39.619-52.571 60.8-7.771 7.619-38.552 31.695-61.714 46.781-59.124 38.4-92.19 53.181-153.6 81.067l-464.457-179.2zM544.61 373.79c-25.143 0-48.914-9.905-69.181-21.029l3.505 21.029h-66.59l-53.333-301.257h66.743l29.562 166.857c6.095 33.829 31.39 75.733 80.762 75.733l34.438 0.152 10.362 58.514h-36.267z" />
<glyph unicode="&#xe901;" glyph-name="paypal" horiz-adv-x="1856" d="M367.030 634.889c-6.703 13.448-17.307 24.54-30.47 32.869-13.732 8.411-29.942 14.301-48.469 17.795-18.852 3.411-40.627 4.956-65.86 5.2l-116.483-0.081c-12.107-0.163-23.971-9.589-26.815-21.288l-78.372-341.36c-2.844-11.538 4.754-21.208 16.861-21.208h55.783c12.107 0 24.092 9.385 26.775 21.208l19.136 82.882c2.56 11.538 14.505 21.169 26.735 21.169h15.967c68.216 0.081 121.032 14.015 158.979 41.929 38.151 27.953 56.961 64.881 56.961 110.633-0.040 20.030-3.332 36.849-10.727 50.256zM246.729 523.364c-16.861-12.349-40.303-18.527-70.529-18.527h-13.65c-12.149 0-19.582 9.589-16.942 21.288l16.78 72.482c2.356 11.62 14.586 21.248 26.571 21.169l18.283 0.123c21.331 0 37.623-3.699 48.511-10.848 10.767-7.070 16.171-18.325 16.088-33.234 0.325-22.67-8.328-40.1-25.109-52.452zM1957.232 664.021l-3.494-1.055-4.672-0.65-5.728 0.894-2.925 2.844-1.341 4.47-0.081 6.703v24.824h18.648v7.679h-18.648v15.481h-9.222v-15.481h-6.257v-7.679h6.257v-28.887l4.306-14.301 12.677-4.549 5.323 0.446 5.648 1.097v8.167zM2043.731 705.785l-13.327 5.484-9.833-1.989-9.993-6.745-5.811 6.459-9.426 2.233-9.059-1.989-8.571-5.525v6.013h-9.059v-54.238h9.020v40.507l7.598 4.712 7.556 1.868 6.176-1.097 3.048-3.128 1.341-5.2 0.446-6.703v-30.999h9.059v34.696l-0.163 2.884-0.163 2.64 7.721 4.916 7.637 1.91 5.971-1.097 3.25-3.128 1.138-5.24 0.611-6.622v-30.999h9.101v35.225zM636.033 586.094c-21.046 11.863-54.278 17.795-99.701 17.795-22.468 0-44.852-1.745-67.481-5.24-16.698-2.56-18.325-3.048-28.602-5.281-21.208-4.633-24.54-25.799-24.54-25.799l-6.826-28.074c-3.859-17.916 6.459-17.226 10.767-15.723 9.263 2.763 14.422 5.607 33.357 9.833 18.081 4.103 37.135 7.193 52.249 6.989 22.305 0 39.368-2.356 50.744-7.149 11.215-4.877 16.82-13.244 16.82-25.353l-0.976-7.881-8.044-4.956c-31.648-1.989-54.521-4.916-82.273-8.938-27.14-3.778-50.948-10.4-70.733-19.461-21.248-9.345-37.012-21.898-48.023-37.865-10.644-16.048-15.967-35.509-15.967-58.344 0-21.492 7.721-39.247 22.71-52.979 15.072-13.488 34.979-20.070 58.79-20.070 15.072 0.081 26.735 1.259 35.023 3.25l27.019 9.305 22.874 12.677 21.046 13.894 0.284-0.407-2.112-8.938-0.123-0.367v-0.081c-2.277-10.888 4.306-19.826 14.91-20.883l0.204-0.244h51.801l0.732 0.325c11.132 1.301 21.575 10.237 24.011 20.883l40.669 176.041 2.112 14.342 0.976 13.448c0.163 24.947-10.604 43.43-31.691 55.256zM546.083 388.153l-8.694-11.459-21.938-11.336c-10.321-4.185-20.11-6.299-29.171-6.299-13.732 0-24.498 1.989-31.771 6.055l-10.767 20.925c0 11.336 2.6 20.314 8.167 27.221l23.646 16.088c10.116 3.411 22.468 6.299 36.768 8.288 12.758 1.585 37.946 4.47 41.239 4.549l3.859-6.785c-0.771-3.859-7.923-33.762-11.336-47.252zM1649.227 585.85c-21.169 11.863-54.361 17.837-99.662 17.837-22.468 0-44.896-1.745-67.443-5.363-16.738-2.437-18.404-2.967-28.725-5.16-21.169-4.589-24.459-25.841-24.459-25.841l-6.826-28.034c-3.82-17.916 6.257-17.105 10.971-15.723 9.305 2.763 14.301 5.484 33.070 9.872 17.998 4.062 37.215 7.070 52.37 6.989 22.224 0 39.287-2.398 50.623-7.193 11.294-4.877 16.82-13.327 16.82-25.311l-0.855-7.842-7.964-5.079c-31.975-1.91-54.889-4.835-82.354-8.857-27.059-3.778-50.948-10.36-70.773-19.461-21.169-9.385-37.135-21.938-48.023-37.946-10.767-16.048-16.008-35.469-16.008-58.1 0-21.655 7.637-39.408 22.833-53.060 15.154-13.448 34.859-20.193 58.667-20.193 14.993 0.163 26.652 1.138 34.979 3.29l26.936 9.182 23.076 12.677 20.883 14.059 0.367-0.446-1.91-9.020-0.204-0.163 0.081-0.163c-2.519-10.888 4.103-19.909 14.83-20.883l0.081-0.204h0.976c7.028 0 31.325 0 42.903 0h7.881l0.855 0.284c11.011 1.341 21.411 10.279 23.727 21.046l40.79 175.797 2.154 14.422 1.178 13.488c0.040 24.865-10.604 43.269-31.852 55.093zM1559.478 387.909l-9.059-11.578-21.736-11.255c-10.321-4.145-20.153-6.299-29.048-6.299-14.18 0-24.661 2.033-31.731 6.094l-10.888 20.841c0 11.376 2.64 20.274 7.964 27.303 5.404 6.622 13.65 12.066 23.89 16.048 9.993 3.411 22.347 6.176 36.729 8.248 12.677 1.585 37.784 4.549 41.034 4.589l3.941-6.785c-0.567-3.859-7.76-33.641-11.092-47.21zM1380.065 633.631c-6.989 13.529-17.47 24.459-30.714 32.99-13.571 8.45-29.659 14.382-48.469 17.795-18.485 3.29-40.546 5.079-65.616 5.121l-116.644-0.081c-12.149-0.204-23.808-9.628-26.612-21.208l-78.453-341.523c-2.844-11.578 4.956-21.169 16.82-21.169l55.865 0.081c11.863-0.081 24.011 9.426 26.815 21.127l18.892 82.923c2.763 11.538 14.749 21.248 26.815 21.169h15.967c68.297 0 121.235 14.059 159.344 41.889 37.663 28.155 56.717 65.005 56.717 110.792-0.204 19.949-3.657 36.808-10.727 50.095zM1259.763 521.942c-16.82-12.107-40.303-18.283-70.37-18.283h-13.894c-11.986-0.123-19.747 9.628-17.063 21.248l16.903 72.359c2.479 11.578 14.586 21.288 26.652 21.169l18.081 0.123c21.452-0.123 37.54-3.657 48.511-10.806 10.927-7.149 16.088-18.364 16.211-33.234 0.123-22.67-8.288-40.14-25.026-52.573zM1858.383 665.523c2.56 11.659-4.754 21.127-16.738 20.964h-49.973c-10.237 0-19.461-7.598-23.971-16.942l-2.763-4.306-2.519-11.050-69.837-317.472-2.277-9.749 0.081-0.244c-2.316-10.442 4.103-18.325 14.015-19.826l0.855-1.178h51.882c10.156 0 19.705 7.721 24.052 17.226l2.681 4.062 74.675 338.477-0.163 0.040zM1015.096 599.623c-13.204-0.163-66.875 0-66.875 0-12.026 0-27.465-9.71-35.103-21.288 0 0-79.875-137.080-87.635-150.851l-9.263 0.123-24.865 149.797c-2.763 11.782-15.072 21.859-30.39 21.859l-49.973-0.081c-12.026 0-19.419-9.589-16.698-21.288 0 0 37.946-215.942 45.544-266.769 3.534-28.034-0.446-33.030-0.446-33.030l-49.405-86.051c-7.312-11.701-3.371-21.248 8.615-21.248l57.773 0.081c12.026 0 27.83 9.466 34.979 21.208l222.241 375.896c0-0.040 21.371 32.096 1.503 31.648z" />
<glyph unicode="&#xe902;" glyph-name="youtube" horiz-adv-x="1152" d="M1099.31 711.834c-12.562 47.3-49.574 84.552-96.568 97.194-85.18 22.972-426.742 22.972-426.742 22.972s-341.56 0-426.742-22.972c-46.994-12.644-84.006-49.894-96.568-97.194-22.824-85.734-22.824-264.61-22.824-264.61s0-178.876 22.824-264.61c12.562-47.3 49.574-83 96.568-95.642 85.182-22.972 426.742-22.972 426.742-22.972s341.56 0 426.742 22.972c46.994 12.642 84.006 48.342 96.568 95.642 22.824 85.734 22.824 264.61 22.824 264.61s0 178.876-22.824 264.61zM464.29 284.818v324.812l285.478-162.41-285.478-162.402z" />
<glyph unicode="&#xe903;" glyph-name="bars" horiz-adv-x="896" d="M32 696h832c17.674 0 32 14.326 32 32v80c0 17.674-14.326 32-32 32h-832c-17.674 0-32-14.326-32-32v-80c0-17.674 14.326-32 32-32zM32 376h832c17.674 0 32 14.326 32 32v80c0 17.674-14.326 32-32 32h-832c-17.674 0-32-14.326-32-32v-80c0-17.674 14.326-32 32-32zM32 56h832c17.674 0 32 14.326 32 32v80c0 17.674-14.326 32-32 32h-832c-17.674 0-32-14.326-32-32v-80c0-17.674 14.326-32 32-32z" />
<glyph unicode="&#xe904;" glyph-name="cart" d="M307.573 285.8h563.842c63.94 0 116.087 52.183 116.087 116.158v237.365c0 0.212 0 0.636 0 0.847 0 0.636 0 1.059 0 1.659 0 0.424 0 0.847-0.212 1.271 0 0.424-0.212 1.059-0.212 1.483s-0.212 0.812-0.212 1.271c-0.212 0.424-0.212 0.847-0.424 1.483-0.247 0.424-0.247 0.847-0.459 1.271s-0.212 0.812-0.424 1.236c-0.212 0.424-0.424 0.847-0.636 1.483-0.212 0.459-0.424 0.847-0.636 1.059-0.212 0.424-0.424 0.812-0.671 1.271-0.212 0.424-0.424 0.636-0.636 1.059s-0.636 0.847-0.812 1.271c-0.212 0.424-0.459 0.636-0.847 1.024-0.212 0.424-0.636 0.636-0.812 1.059s-0.636 0.636-0.812 1.059c-0.247 0.424-0.671 0.636-0.847 0.847-0.424 0.424-0.636 0.636-1.059 1.059-0.424 0.212-0.636 0.636-1.024 0.812-0.424 0.247-0.812 0.671-1.236 0.847-0.459 0.212-0.671 0.424-1.059 0.636s-0.812 0.424-1.271 0.847c-0.424 0.212-0.812 0.424-1.236 0.636s-0.847 0.424-1.271 0.636-0.812 0.424-1.236 0.636c-0.459 0.212-0.847 0.212-1.271 0.424s-1.059 0.424-1.483 0.424-0.812 0.212-1.024 0.212c-0.671 0.212-1.059 0.212-1.695 0.212-0.212 0-0.424 0.212-0.812 0.212l-714.706 98.681v99.705c0 1.059 0 2.118-0.212 2.93 0 0.212 0 0.424-0.212 0.847 0 0.636-0.247 1.236-0.247 1.871-0.212 0.671-0.212 1.059-0.424 1.695 0 0.424-0.212 0.636-0.212 1.059-0.177 0.671-0.388 1.306-0.6 1.907 0 0.212-0.212 0.636-0.212 0.847-0.212 0.636-0.424 1.059-0.847 1.695-0.212 0.212-0.212 0.636-0.424 0.847-0.212 0.424-0.388 0.847-0.812 1.271-0.212 0.424-0.424 0.636-0.671 1.059-0.212 0.424-0.388 0.636-0.6 1.024s-0.636 0.847-0.847 1.271c-0.212 0.212-0.388 0.424-0.6 0.636-0.459 0.424-0.883 0.812-1.271 1.271-0.212 0.212-0.424 0.388-0.636 0.636-0.459 0.388-0.847 0.812-1.483 1.236-0.212 0.212-0.636 0.459-0.812 0.636-0.459 0.424-0.883 0.636-1.306 1.059-0.636 0.424-1.271 0.847-1.695 1.059-0.177 0.212-0.388 0.212-0.6 0.424-0.812 0.424-1.907 0.847-2.719 1.271l-155.030 65.211c-14.511 6.108-31.14-0.636-37.248-15.146s0.671-31.14 15.182-37.248l137.554-58.114v-622.451c0-58.926 44.168-107.755 101.153-115.134-10.309-17.265-16.417-37.46-16.417-58.926 0-63.34 51.512-114.675 114.604-114.675s114.64 51.547 114.64 114.675c0 21.078-5.684 41.026-15.782 57.902h255.3c-10.098-17.053-15.747-36.825-15.747-57.902 0-63.34 51.512-114.675 114.604-114.675s114.64 51.547 114.64 114.675-51.547 114.71-114.64 114.71h-536.268c-32.835 0-59.315 26.727-59.315 59.35v77.038c17.229-10.133 37.637-15.994 59.315-15.994zM448.904 50.978c0-31.988-26.056-57.902-57.867-57.902-31.74 0-57.832 26.091-57.832 57.902 0 31.74 26.056 57.867 57.832 57.867s57.867-25.915 57.867-57.867zM901.92 50.978c0-31.988-26.091-57.902-57.867-57.902s-57.832 26.091-57.832 57.902c0 31.74 26.056 57.867 57.832 57.867s57.867-25.915 57.867-57.867zM871.38 342.644h-563.842c-32.835 0-59.315 26.727-59.315 59.35v306.989l682.436-94.056v-212.756c0.035-33.011-26.656-59.526-59.279-59.526z" />
<glyph unicode="&#xe905;" glyph-name="cart-plus" d="M810.283 873.204c-88.008 0-160-71.984-160-160 0-87.984 71.992-160 160-160s160 72.016 160 160c0 88.016-71.992 160-160 160zM890.283 697.212h-64.008v-64.008h-31.984v64.008h-64.008v31.992h64.008v64h31.984v-64h64.008v-31.992zM276.659 310.548h463.888c52.56 0 95.504 42.936 95.504 95.56v195.32c0 0.16 0 0.504 0 0.688 0 0.504 0 0.872 0 1.376 0 0.344 0 0.688-0.184 1.032 0 0.376-0.184 0.872-0.184 1.216s-0.16 0.688-0.16 1.032c-0.16 0.344-0.16 0.72-0.344 1.216-0.184 0.344-0.184 0.688-0.344 1.032s-0.16 0.72-0.344 1.064-0.344 0.688-0.528 1.184c-0.16 0.344-0.344 0.72-0.528 0.872-0.16 0.344-0.312 0.688-0.504 1.032s-0.344 0.528-0.504 0.872c-0.184 0.344-0.528 0.688-0.72 1.064-0.16 0.312-0.344 0.504-0.688 0.84-0.16 0.344-0.528 0.528-0.688 0.872s-0.528 0.504-0.688 0.84c-0.16 0.376-0.528 0.528-0.72 0.72-0.312 0.344-0.504 0.504-0.84 0.84-0.344 0.184-0.528 0.528-0.84 0.688-0.376 0.184-0.72 0.528-1.064 0.72-0.344 0.16-0.504 0.344-0.872 0.504-0.312 0.184-0.688 0.344-1.032 0.688-0.344 0.184-0.688 0.376-1.032 0.528-0.344 0.184-0.688 0.344-1.032 0.528-0.344 0.16-0.72 0.344-1.032 0.504-0.376 0.184-0.688 0.184-1.064 0.344-0.344 0.184-0.872 0.344-1.184 0.344-0.376 0-0.688 0.184-0.872 0.184-0.528 0.184-0.872 0.184-1.376 0.184-0.184 0-0.376 0.16-0.688 0.16l-587.96 81.2v82.064c0 0.872 0 1.752-0.168 2.44 0 0.16 0 0.344-0.168 0.688 0 0.528-0.168 1.032-0.168 1.56-0.168 0.504-0.168 0.872-0.344 1.376 0 0.344-0.184 0.528-0.184 0.872-0.16 0.528-0.344 1.032-0.512 1.56 0 0.16-0.168 0.504-0.168 0.688-0.168 0.528-0.344 0.872-0.688 1.376-0.168 0.184-0.168 0.528-0.344 0.688-0.168 0.376-0.344 0.688-0.688 1.064-0.184 0.344-0.36 0.504-0.528 0.84-0.168 0.376-0.344 0.528-0.512 0.872s-0.512 0.688-0.688 1.032c-0.168 0.184-0.344 0.344-0.512 0.528-0.36 0.344-0.704 0.688-1.048 1.032-0.168 0.184-0.344 0.344-0.512 0.528-0.344 0.344-0.688 0.688-1.216 1.032-0.168 0.16-0.512 0.344-0.688 0.528-0.344 0.344-0.688 0.504-1.032 0.84-0.528 0.376-1.048 0.688-1.392 0.872-0.168 0.184-0.344 0.184-0.512 0.344-0.688 0.344-1.56 0.688-2.248 1.032l-127.512 53.688c-11.936 5-25.608-0.528-30.624-12.472-5.032-11.968 0.512-25.624 12.456-30.656l113.16-47.784v-512.104c0-48.472 36.344-88.656 83.216-94.72-8.472-14.184-13.488-30.816-13.488-48.472 0-52.096 42.392-94.344 94.296-94.344s94.296 42.408 94.296 94.344c0 17.312-4.672 33.752-12.984 47.624h210.064c-8.312-14.032-13-30.312-13-47.624 0-52.096 42.408-94.344 94.312-94.344s94.312 42.408 94.312 94.344-42.448 94.384-94.352 94.384h-441.2c-27 0-48.8 22-48.8 48.84v63.376c14.184-8.304 30.968-13.184 48.792-13.184zM392.923 117.364c0-26.312-21.456-47.624-47.576-47.624s-47.576 21.472-47.576 47.624c0 26.128 21.456 47.592 47.576 47.592s47.576-21.28 47.576-47.592zM765.611 117.364c0-26.312-21.44-47.624-47.56-47.624s-47.592 21.472-47.592 47.624c0 26.128 21.472 47.592 47.592 47.592s47.56-21.28 47.56-47.592zM740.555 357.3h-463.896c-27 0-48.8 22-48.8 48.816v252.592l561.472-77.376v-175.032c0-27.184-21.968-49-48.776-49z" />
<glyph unicode="&#xe906;" glyph-name="circle" d="M512 944c-274 0-496-222-496-496s222-496 496-496 496 222 496 496-222 496-496 496z" />
<glyph unicode="&#xe907;" glyph-name="envelope" d="M1004.6 578.4c7.8 6.2 19.4 0.4 19.4-9.4v-409c0-53-43-96-96-96h-832c-53 0-96 43-96 96v408.8c0 10 11.4 15.6 19.4 9.4 44.8-34.8 104.2-79 308.2-227.2 42.2-30.8 113.4-95.6 184.4-95.2 71.4-0.6 144 65.6 184.6 95.2 204 148.2 263.2 192.6 308 227.4zM512 320c46.4-0.8 113.2 58.4 146.8 82.8 265.4 192.6 285.6 209.4 346.8 257.4 11.6 9 18.4 23 18.4 37.8v38c0 53-43 96-96 96h-832c-53 0-96-43-96-96v-38c0-14.8 6.8-28.6 18.4-37.8 61.2-47.8 81.4-64.8 346.8-257.4 33.6-24.4 100.4-83.6 146.8-82.8z" />
<glyph unicode="&#xe908;" glyph-name="minus-circle" d="M512 944c-274 0-496-222-496-496s222-496 496-496 496 222 496 496-222 496-496 496zM248 368c-13.2 0-24 10.8-24 24v112c0 13.2 10.8 24 24 24h528c13.2 0 24-10.8 24-24v-112c0-13.2-10.8-24-24-24h-528z" />
<glyph unicode="&#xe909;" glyph-name="play" horiz-adv-x="896" d="M848.8 530.6l-704 416.2c-57.2 33.8-144.8 1-144.8-82.6v-832.2c0-75 81.4-120.2 144.8-82.6l704 416c62.8 37 63 128.2 0 165.2z" />
<glyph unicode="&#xe90a;" glyph-name="plus" horiz-adv-x="896" d="M832 544h-288v288c0 35.34-28.66 64-64 64h-64c-35.34 0-64-28.66-64-64v-288h-288c-35.34 0-64-28.66-64-64v-64c0-35.34 28.66-64 64-64h288v-288c0-35.34 28.66-64 64-64h64c35.34 0 64 28.66 64 64v288h288c35.34 0 64 28.66 64 64v64c0 35.34-28.66 64-64 64z" />
<glyph unicode="&#xe90b;" glyph-name="phone" d="M962.712 174.050l-145.747 145.805c-29.007 28.889-77.14 28.007-107.149-2l-73.373-73.432c-4.707 2.53-9.414 5.237-14.474 8.061-46.423 25.712-109.855 60.897-176.637 127.742-66.958 67.016-102.207 130.508-127.978 176.931-2.707 4.942-5.354 9.649-7.884 14.18l73.55 73.432c30.066 30.125 30.89 78.141 1.942 107.149l-145.747 145.805c-28.948 28.948-77.081 28.125-107.149-2l-41.187-41.422 1.118-1.118c-13.768-17.534-25.3-37.833-33.832-59.721-7.884-20.829-12.827-40.657-15.063-60.544-19.24-159.574 53.66-305.379 251.542-503.256 273.489-273.489 493.901-252.837 503.374-251.836 20.77 2.53 40.539 7.472 60.78 15.298 21.652 8.532 41.951 19.946 59.485 33.655l0.883-0.824 41.657 40.775c30.007 30.184 30.831 78.259 1.883 107.325z" />
<glyph unicode="&#xe90c;" glyph-name="plus-circle" d="M512 944c-274 0-496-222-496-496s222-496 496-496 496 222 496 496-222 496-496 496zM800 392c0-13.2-10.8-24-24-24h-184v-184c0-13.2-10.8-24-24-24h-112c-13.2 0-24 10.8-24 24v184h-184c-13.2 0-24 10.8-24 24v112c0 13.2 10.8 24 24 24h184v184c0 13.2 10.8 24 24 24h112c13.2 0 24-10.8 24-24v-184h184c13.2 0 24-10.8 24-24v-112z" />
<glyph unicode="&#xe90d;" glyph-name="th" d="M298.666 848v-160c0-26.51-21.49-48-48-48h-202.666c-26.51 0-48 21.49-48 48v160c0 26.51 21.49 48 48 48h202.666c26.51 0 48-21.49 48-48zM661.334 368v160c0 26.51-21.49 48-48 48h-202.668c-26.51 0-48-21.49-48-48v-160c0-26.51 21.49-48 48-48h202.666c26.512 0 48.002 21.49 48.002 48zM725.334 848v-160c0-26.51 21.49-48 48-48h202.666c26.51 0 48 21.49 48 48v160c0 26.51-21.49 48-48 48h-202.666c-26.51 0-48-21.49-48-48zM661.334 688v160c0 26.51-21.49 48-48 48h-202.668c-26.51 0-48-21.49-48-48v-160c0-26.51 21.49-48 48-48h202.666c26.512 0 48.002 21.49 48.002 48zM250.666 576h-202.666c-26.51 0-48-21.49-48-48v-160c0-26.51 21.49-48 48-48h202.666c26.51 0 48 21.49 48 48v160c0 26.51-21.49 48-48 48zM0 208v-160c0-26.51 21.49-48 48-48h202.666c26.51 0 48 21.49 48 48v160c0 26.51-21.49 48-48 48h-202.666c-26.51 0-48-21.49-48-48zM773.334 320h202.666c26.51 0 48 21.49 48 48v160c0 26.51-21.49 48-48 48h-202.666c-26.51 0-48-21.49-48-48v-160c0-26.51 21.49-48 48-48zM773.334 0h202.666c26.51 0 48 21.49 48 48v160c0 26.51-21.49 48-48 48h-202.666c-26.51 0-48-21.49-48-48v-160c0-26.51 21.49-48 48-48zM362.666 208v-160c0-26.51 21.49-48 48-48h202.666c26.51 0 48 21.49 48 48v160c0 26.51-21.49 48-48 48h-202.666c-26.51 0-48-21.49-48-48z" />
<glyph unicode="&#xe90e;" glyph-name="th-large" d="M592 896h384c26.51 0 48-21.49 48-48v-320c0-26.51-21.49-48-48-48h-384c-26.51 0-48 21.49-48 48v320c0 26.51 21.49 48 48 48zM432 896h-384c-26.51 0-48-21.49-48-48v-320c0-26.51 21.49-48 48-48h384c26.51 0 48 21.49 48 48v320c0 26.51-21.49 48-48 48zM0 368v-320c0-26.51 21.49-48 48-48h384c26.51 0 48 21.49 48 48v320c0 26.51-21.49 48-48 48h-384c-26.51 0-48-21.49-48-48zM592 0h384c26.51 0 48 21.49 48 48v320c0 26.51-21.49 48-48 48h-384c-26.51 0-48-21.49-48-48v-320c0-26.51 21.49-48 48-48z" />
<glyph unicode="&#xe90f;" glyph-name="th-list" d="M298.666 528v-160c0-26.51-21.49-48-48-48h-202.666c-26.51 0-48 21.49-48 48v160c0 26.51 21.49 48 48 48h202.666c26.51 0 48-21.49 48-48zM0 208v-160c0-26.51 21.49-48 48-48h202.666c26.51 0 48 21.49 48 48v160c0 26.51-21.49 48-48 48h-202.666c-26.51 0-48-21.49-48-48zM250.666 896h-202.666c-26.51 0-48-21.49-48-48v-160c0-26.51 21.49-48 48-48h202.666c26.51 0 48 21.49 48 48v160c0 26.51-21.49 48-48 48zM410.666 0h565.334c26.51 0 48 21.49 48 48v160c0 26.51-21.49 48-48 48h-565.334c-26.51 0-48-21.49-48-48v-160c0-26.51 21.49-48 48-48zM362.666 848v-160c0-26.51 21.49-48 48-48h565.334c26.51 0 48 21.49 48 48v160c0 26.51-21.49 48-48 48h-565.334c-26.51 0-48-21.49-48-48zM410.666 320h565.334c26.51 0 48 21.49 48 48v160c0 26.51-21.49 48-48 48h-565.334c-26.51 0-48-21.49-48-48v-160c0-26.51 21.49-48 48-48z" />
<glyph unicode="&#xe910;" glyph-name="user" horiz-adv-x="896" d="M448 448c141.4 0 256 114.6 256 256s-114.6 256-256 256-256-114.6-256-256 114.6-256 256-256zM627.2 384h-33.4c-44.4-20.4-93.8-32-145.8-32s-101.2 11.6-145.8 32h-33.4c-148.4 0-268.8-120.4-268.8-268.8v-83.2c0-53 43-96 96-96h704c53 0 96 43 96 96v83.2c0 148.4-120.4 268.8-268.8 268.8z" />
<glyph unicode="&#xe911;" glyph-name="user-circle" horiz-adv-x="992" d="M496 944c-274 0-496-222-496-496s222-496 496-496 496 222 496 496-222 496-496 496zM496 752c97.2 0 176-78.8 176-176s-78.8-176-176-176-176 78.8-176 176 78.8 176 176 176zM496 64c-117.4 0-222.6 53.2-293 136.4 37.6 70.8 111.2 119.6 197 119.6 4.8 0 9.6-0.8 14.2-2.2 26-8.4 53.2-13.8 81.8-13.8s56 5.4 81.8 13.8c4.6 1.4 9.4 2.2 14.2 2.2 85.8 0 159.4-48.8 197-119.6-70.4-83.2-175.6-136.4-293-136.4z" />
<glyph unicode="&#xe912;" glyph-name="angle-double-down" horiz-adv-x="640" d="M286 447.4l-272 272c-18.8 18.8-18.8 49.2 0 67.8l45.2 45.2c18.8 18.8 49.2 18.8 67.8 0l192.8-192.8 192.8 192.8c18.8 18.8 49.2 18.8 67.8 0l45.6-45c18.8-18.8 18.8-49.2 0-67.8l-272-272c-18.8-19-49.2-19-68-0.2zM354 63.4l272 272c18.8 18.8 18.8 49.2 0 67.8l-45.2 45.2c-18.8 18.8-49.2 18.8-67.8 0l-193-192.6-192.8 192.8c-18.8 18.8-49.2 18.8-67.8 0l-45.4-45.2c-18.8-18.8-18.8-49.2 0-67.8l272-272c18.8-19 49.2-19 68-0.2z" />
<glyph unicode="&#xe913;" glyph-name="angle-double-left" horiz-adv-x="896" d="M447.4 482l272 272c18.8 18.8 49.2 18.8 67.8 0l45.2-45.2c18.8-18.8 18.8-49.2 0-67.8l-192.6-193 192.8-192.8c18.8-18.8 18.8-49.2 0-67.8l-45.2-45.4c-18.8-18.8-49.2-18.8-67.8 0l-272 272c-19 18.8-19 49.2-0.2 68zM63.4 414l272-272c18.8-18.8 49.2-18.8 67.8 0l45.2 45.2c18.8 18.8 18.8 49.2 0 67.8l-192.6 193 192.8 192.8c18.8 18.8 18.8 49.2 0 67.8l-45.2 45.4c-18.8 18.8-49.2 18.8-67.8 0l-272-272c-19-18.8-19-49.2-0.2-68z" />
<glyph unicode="&#xe914;" glyph-name="angle-double-right" horiz-adv-x="896" d="M448.6 414l-272-272c-18.8-18.8-49.2-18.8-67.8 0l-45.2 45.2c-18.8 18.8-18.8 49.2 0 67.8l192.8 192.8-192.8 192.8c-18.8 18.8-18.8 49.2 0 67.8l45 45.6c18.8 18.8 49.2 18.8 67.8 0l272-272c19-18.8 19-49.2 0.2-68zM832.6 482l-272 272c-18.8 18.8-49.2 18.8-67.8 0l-45.2-45.2c-18.8-18.8-18.8-49.2 0-67.8l192.8-192.8-192.8-192.8c-18.8-18.8-18.8-49.2 0-67.8l45.2-45.2c18.8-18.8 49.2-18.8 67.8 0l272 272c18.8 18.4 18.8 48.8 0 67.6z" />
<glyph unicode="&#xe915;" glyph-name="angle-double-up" horiz-adv-x="640" d="M354 448.6l272-272c18.8-18.8 18.8-49.2 0-67.8l-45.2-45.2c-18.8-18.8-49.2-18.8-67.8 0l-193 192.6-192.8-192.8c-18.8-18.8-49.2-18.8-67.8 0l-45.4 45.2c-18.8 18.8-18.8 49.2 0 67.8l272 272c18.8 19 49.2 19 68 0.2zM286 832.6l-272-272c-18.8-18.8-18.8-49.2 0-67.8l45.2-45.2c18.8-18.8 49.2-18.8 67.8 0l192.8 192.8 192.8-192.8c18.8-18.8 49.2-18.8 67.8 0l45.2 45.2c18.8 18.8 18.8 49.2 0 67.8l-272 272c-18.4 18.8-48.8 18.8-67.6 0z" />
<glyph unicode="&#xe916;" glyph-name="angle-down" horiz-adv-x="640" d="M286 255.4l-272 272c-18.8 18.8-18.8 49.2 0 67.8l45.2 45.2c18.8 18.8 49.2 18.8 67.8 0l192.8-192.8 192.8 192.8c18.8 18.8 49.2 18.8 67.8 0l45.2-45.2c18.8-18.8 18.8-49.2 0-67.8l-272-272c-18.4-18.8-48.8-18.8-67.6 0z" />
<glyph unicode="&#xe917;" glyph-name="angle-left" horiz-adv-x="512" d="M63.4 482l272 272c18.8 18.8 49.2 18.8 67.8 0l45.2-45.2c18.8-18.8 18.8-49.2 0-67.8l-192.6-193 192.8-192.8c18.8-18.8 18.8-49.2 0-67.8l-45.2-45.4c-18.8-18.8-49.2-18.8-67.8 0l-272 272c-19 18.8-19 49.2-0.2 68z" />
<glyph unicode="&#xe918;" glyph-name="angle-right" horiz-adv-x="512" d="M448.6 414l-272-272c-18.8-18.8-49.2-18.8-67.8 0l-45.2 45.2c-18.8 18.8-18.8 49.2 0 67.8l192.8 192.8-192.8 192.8c-18.8 18.8-18.8 49.2 0 67.8l45 45.6c18.8 18.8 49.2 18.8 67.8 0l272-272c19-18.8 19-49.2 0.2-68z" />
<glyph unicode="&#xe919;" glyph-name="angle-up" horiz-adv-x="640" d="M354 640.6l272-272c18.8-18.8 18.8-49.2 0-67.8l-45.2-45.2c-18.8-18.8-49.2-18.8-67.8 0l-193 192.6-192.8-192.8c-18.8-18.8-49.2-18.8-67.8 0l-45.4 45.2c-18.8 18.8-18.8 49.2 0 67.8l272 272c18.8 19 49.2 19 68 0.2z" />
<glyph unicode="&#xe91a;" glyph-name="arrow-alt-circle-down" d="M1008 448c0-274-222-496-496-496s-496 222-496 496 222 496 496 496 496-222 496-496zM424 680v-232h-141.8c-21.4 0-32.2-26-17-41l229.8-228.6c9.4-9.4 24.4-9.4 33.8 0l229.8 228.6c15.2 15.2 4.4 41-17 41h-141.6v232c0 13.2-10.8 24-24 24h-128c-13.2 0-24-10.8-24-24z" />
<glyph unicode="&#xe91b;" glyph-name="arrow-alt-circle-left" d="M512-48c-274 0-496 222-496 496s222 496 496 496 496-222 496-496-222-496-496-496zM744 536h-232v141.8c0 21.4-26 32.2-41 17l-228.6-229.8c-9.4-9.4-9.4-24.4 0-33.8l228.6-229.8c15.2-15.2 41-4.4 41 17v141.6h232c13.2 0 24 10.8 24 24v128c0 13.2-10.8 24-24 24z" />
<glyph unicode="&#xe91c;" glyph-name="arrow-alt-circle-right" d="M512 944c274 0 496-222 496-496s-222-496-496-496-496 222-496 496 222 496 496 496zM280 360h232v-141.8c0-21.4 26-32.2 41-17l228.6 229.8c9.4 9.4 9.4 24.4 0 33.8l-228.6 230c-15.2 15.2-41 4.4-41-17v-141.8h-232c-13.2 0-24-10.8-24-24v-128c0-13.2 10.8-24 24-24z" />
<glyph unicode="&#xe91d;" glyph-name="arrow-alt-circle-up" d="M16 448c0 274 222 496 496 496s496-222 496-496-222-496-496-496-496 222-496 496zM600 216v232h141.8c21.4 0 32.2 26 17 41l-229.8 228.6c-9.4 9.4-24.4 9.4-33.8 0l-230-228.6c-15.2-15.2-4.4-41 17-41h141.8v-232c0-13.2 10.8-24 24-24h128c13.2 0 24 10.8 24 24z" />
<glyph unicode="&#xe91e;" glyph-name="bars1" horiz-adv-x="896" d="M32 696h832c17.674 0 32 14.326 32 32v80c0 17.674-14.326 32-32 32h-832c-17.674 0-32-14.326-32-32v-80c0-17.674 14.326-32 32-32zM32 376h832c17.674 0 32 14.326 32 32v80c0 17.674-14.326 32-32 32h-832c-17.674 0-32-14.326-32-32v-80c0-17.674 14.326-32 32-32zM32 56h832c17.674 0 32 14.326 32 32v80c0 17.674-14.326 32-32 32h-832c-17.674 0-32-14.326-32-32v-80c0-17.674 14.326-32 32-32z" />
<glyph unicode="&#xe91f;" glyph-name="caret-square-down" horiz-adv-x="896" d="M896 800v-704c0-53-43-96-96-96h-704c-53 0-96 43-96 96v704c0 53 43 96 96 96h704c53 0 96-43 96-96zM185 519l246-246c9.4-9.4 24.6-9.4 34 0l246 246c15.2 15.2 4.4 41-17 41h-492c-21.4 0-32.2-25.8-17-41z" />
<glyph unicode="&#xe920;" glyph-name="caret-square-left" horiz-adv-x="896" d="M800 0h-704c-53.020 0-96 42.98-96 96v704c0 53.020 42.98 96 96 96h704c53.020 0 96-42.98 96-96v-704c0-53.020-42.98-96-96-96zM519.030 711.030l-246.060-246.060c-9.372-9.372-9.372-24.568 0-33.942l246.058-246.058c15.12-15.12 40.97-4.412 40.97 16.97v492.118c0.002 21.382-25.85 32.090-40.968 16.972z" />
<glyph unicode="&#xe921;" glyph-name="caret-square-right" horiz-adv-x="896" d="M96 896h704c53.020 0 96-42.98 96-96v-704c0-53.020-42.98-96-96-96h-704c-53.020 0-96 42.98-96 96v704c0 53.020 42.98 96 96 96zM376.97 184.97l246.058 246.058c9.372 9.372 9.372 24.568 0 33.942l-246.058 246.060c-15.12 15.12-40.97 4.412-40.97-16.97v-492.118c0-21.382 25.852-32.090 40.97-16.972z" />
<glyph unicode="&#xe922;" glyph-name="caret-square-up" horiz-adv-x="896" d="M0 96v704c0 53.020 42.98 96 96 96h704c53.020 0 96-42.98 96-96v-704c0-53.020-42.98-96-96-96h-704c-53.020 0-96 42.98-96 96zM711.030 376.97l-246.060 246.060c-9.372 9.372-24.568 9.372-33.942 0l-246.058-246.060c-15.12-15.12-4.412-40.97 16.97-40.97h492.118c21.382 0 32.090 25.852 16.972 40.97z" />
<glyph unicode="&#xe923;" glyph-name="check" d="M347.796 81.192l-332.8 332.8c-19.994 19.994-19.994 52.412 0 72.408l72.406 72.408c19.994 19.996 52.414 19.996 72.408 0l224.19-224.188 480.19 480.188c19.994 19.994 52.414 19.994 72.408 0l72.406-72.408c19.994-19.994 19.994-52.412 0-72.408l-588.8-588.802c-19.996-19.994-52.414-19.994-72.408 0.002z" />
<glyph unicode="&#xe924;" glyph-name="check-circle" d="M1008 448c0-273.934-222.066-496-496-496s-496 222.066-496 496 222.066 496 496 496 496-222.066 496-496zM454.628 185.372l368 368c12.496 12.496 12.496 32.758 0 45.254l-45.254 45.254c-12.496 12.498-32.758 12.498-45.256 0l-300.118-300.116-140.118 140.118c-12.496 12.496-32.758 12.496-45.256 0l-45.254-45.254c-12.496-12.496-12.496-32.758 0-45.254l208-208c12.498-12.498 32.758-12.498 45.256-0.002z" />
<glyph unicode="&#xe925;" glyph-name="check-square" horiz-adv-x="896" d="M800 0h-704c-53.020 0-96 42.98-96 96v704c0 53.020 42.98 96 96 96h704c53.020 0 96-42.98 96-96v-704c0-53.020-42.98-96-96-96zM390.628 196.118l368 368c12.496 12.496 12.496 32.758 0 45.254l-45.254 45.254c-12.496 12.496-32.758 12.498-45.256 0l-300.118-300.116-140.118 140.118c-12.496 12.496-32.758 12.496-45.256 0l-45.254-45.254c-12.496-12.496-12.496-32.758 0-45.254l208-208c12.498-12.5 32.758-12.5 45.256-0.002z" />
<glyph unicode="&#xe926;" glyph-name="chevron-circle-down" d="M1008 448c0-274-222-496-496-496s-496 222-496 496 222 496 496 496 496-222 496-496zM546 220.2l271 271c18.8 18.8 18.8 49.2 0 67.8l-34 34c-18.8 18.8-49.2 18.8-67.8 0l-203.2-203.2-203.2 203.2c-18.8 18.8-49.2 18.8-67.8 0l-34-34c-18.8-18.8-18.8-49.2 0-67.8l271-271c18.8-18.8 49.2-18.8 68 0z" />
<glyph unicode="&#xe927;" glyph-name="chevron-circle-left" d="M512-48c-274 0-496 222-496 496s222 496 496 496 496-222 496-496-222-496-496-496zM284.2 414l271-271c18.8-18.8 49.2-18.8 67.8 0l34 34c18.8 18.8 18.8 49.2 0 67.8l-203.2 203.2 203.2 203.2c18.8 18.8 18.8 49.2 0 67.8l-34 34c-18.8 18.8-49.2 18.8-67.8 0l-271-271c-18.8-18.8-18.8-49.2 0-68z" />
<glyph unicode="&#xe928;" glyph-name="chevron-circle-right" d="M512 944c274 0 496-222 496-496s-222-496-496-496-496 222-496 496 222 496 496 496zM739.8 482l-271 271c-18.8 18.8-49.2 18.8-67.8 0l-34-34c-18.8-18.8-18.8-49.2 0-67.8l203.2-203.2-203.2-203.2c-18.8-18.8-18.8-49.2 0-67.8l34-34c18.8-18.8 49.2-18.8 67.8 0l271 271c18.8 18.8 18.8 49.2 0 68z" />
<glyph unicode="&#xe929;" glyph-name="chevron-circle-up" d="M16 448c0 274 222 496 496 496s496-222 496-496-222-496-496-496-496 222-496 496zM478 675.8l-271-271c-18.8-18.8-18.8-49.2 0-67.8l34-34c18.8-18.8 49.2-18.8 67.8 0l203.2 203.2 203.2-203.2c18.8-18.8 49.2-18.8 67.8 0l34 34c18.8 18.8 18.8 49.2 0 67.8l-271 271c-18.8 18.8-49.2 18.8-68 0z" />
<glyph unicode="&#xe92a;" glyph-name="chevron-down" horiz-adv-x="896" d="M414.058 197.048l-388.686 388.688c-18.746 18.746-18.746 49.138 0 67.882l45.334 45.334c18.714 18.714 49.044 18.75 67.802 0.080l309.492-308.042 309.49 308.042c18.758 18.67 49.088 18.634 67.802-0.080l45.334-45.334c18.746-18.746 18.746-49.138 0-67.882l-388.684-388.688c-18.746-18.744-49.138-18.744-67.884 0z" />
<glyph unicode="&#xe92b;" glyph-name="chevron-left" horiz-adv-x="640" d="M69.040 481.94l388.7 388.68c18.74 18.74 49.14 18.74 67.88 0l45.34-45.34c18.72-18.72 18.74-49.040 0.080-67.8l-308.060-309.48 308.040-309.5c18.68-18.76 18.64-49.080-0.080-67.8l-45.34-45.34c-18.74-18.74-49.14-18.74-67.88 0l-388.68 388.7c-18.74 18.74-18.74 49.14 0 67.88z" />
<glyph unicode="&#xe92c;" glyph-name="chevron-right" horiz-adv-x="640" d="M570.952 414.058l-388.688-388.686c-18.746-18.746-49.138-18.746-67.882 0l-45.334 45.334c-18.714 18.714-18.75 49.044-0.080 67.802l308.042 309.492-308.042 309.49c-18.67 18.758-18.634 49.088 0.080 67.802l45.334 45.334c18.746 18.746 49.138 18.746 67.882 0l388.686-388.686c18.746-18.744 18.746-49.136 0.002-67.882z" />
<glyph unicode="&#xe92d;" glyph-name="chevron-up" horiz-adv-x="896" d="M481.942 698.952l388.686-388.686c18.746-18.746 18.746-49.138 0-67.882l-45.334-45.334c-18.714-18.714-49.044-18.75-67.802-0.080l-309.492 308.040-309.49-308.042c-18.758-18.67-49.088-18.634-67.802 0.080l-45.334 45.334c-18.746 18.746-18.746 49.138 0 67.882l388.686 388.686c18.744 18.746 49.136 18.746 67.882 0.002z" />
<glyph unicode="&#xe92e;" glyph-name="minus" horiz-adv-x="896" d="M832 544h-768c-35.34 0-64-28.66-64-64v-64c0-35.34 28.66-64 64-64h768c35.34 0 64 28.66 64 64v64c0 35.34-28.66 64-64 64z" />
<glyph unicode="&#xe92f;" glyph-name="minus-circle1" d="M512 944c-274 0-496-222-496-496s222-496 496-496 496 222 496 496-222 496-496 496zM248 368c-13.2 0-24 10.8-24 24v112c0 13.2 10.8 24 24 24h528c13.2 0 24-10.8 24-24v-112c0-13.2-10.8-24-24-24h-528z" />
<glyph unicode="&#xe930;" glyph-name="minus-square" horiz-adv-x="896" d="M800 896h-704c-53 0-96-43-96-96v-704c0-53 43-96 96-96h704c53 0 96 43 96 96v704c0 53-43 96-96 96zM184 368c-13.2 0-24 10.8-24 24v112c0 13.2 10.8 24 24 24h528c13.2 0 24-10.8 24-24v-112c0-13.2-10.8-24-24-24h-528z" />
<glyph unicode="&#xe931;" glyph-name="play-circle" d="M512 944c-274 0-496-222-496-496s222-496 496-496 496 222 496 496-222 496-496 496zM743.4 400l-352-202c-31.6-17.6-71.4 5-71.4 42v416c0 36.8 39.6 59.6 71.4 42l352-214c32.8-18.4 32.8-65.8 0-84z" />
<glyph unicode="&#xe932;" glyph-name="play3" horiz-adv-x="896" d="M47.2 365.4l704-416.2c57.2-33.8 144.8-1 144.8 82.6v832.2c0 75-81.4 120.2-144.8 82.6l-704-416c-62.8-37-63-128.2 0-165.2z" />
<glyph unicode="&#xe933;" glyph-name="play2" d="M594.685 47.188l416.2 704c33.8 57.2 1 144.8-82.6 144.8h-832.2c-75 0-120.2-81.4-82.6-144.8l416-704c37-62.8 128.2-63 165.2 0z" />
<glyph unicode="&#xe934;" glyph-name="play4" d="M429.315 848.812l-416.2-704c-33.8-57.2-1-144.8 82.6-144.8h832.2c75 0 120.2 81.4 82.6 144.8l-416 704c-37 62.8-128.2 63-165.2 0z" />
<glyph unicode="&#xe947;" glyph-name="location" d="M512 960c-176.732 0-320-143.268-320-320 0-320 320-704 320-704s320 384 320 704c0 176.732-143.27 320-320 320zM512 448c-106.040 0-192 85.96-192 192s85.96 192 192 192 192-85.96 192-192-85.96-192-192-192z" />
<glyph unicode="&#xe9bd;" glyph-name="menu" d="M64 768h896v-192h-896zM64 512h896v-192h-896zM64 256h896v-192h-896z" />
<glyph unicode="&#xea90;" glyph-name="facebook" d="M608 768h160v192h-160c-123.514 0-224-100.486-224-224v-96h-128v-192h128v-512h192v512h160l32 192h-192v96c0 17.346 14.654 32 32 32z" />
</font>
</defs>
</svg>
