<?xml version="1.0" standalone="no"?>

<!DOCTYPE svg PUBLIC "-//W3C//DTD SVG 20010904//EN"

        "http://www.w3.org/TR/2001/REC-SVG-20010904/DTD/svg10.dtd">

<svg version="1.0" xmlns="http://www.w3.org/2000/svg"

     width="2364.000000pt" height="2166.000000pt" viewBox="0 0 2364.000000 2166.000000"

     preserveAspectRatio="xMidYMid meet">

    <g transform="translate(0.000000,2166.000000) scale(0.100000,-0.100000)"

       fill="#ffffff" stroke="none">

        <path d="M11700 18493 c-895 -47 -1569 -129 -2409 -294 -453 -89 -1225 -269

-1281 -299 -21 -11 -34 -47 -28 -76 1 -9 15 -26 30 -37 l28 -21 287 72 c1941

483 3682 631 5243 446 1928 -228 3523 -988 4600 -2190 177 -197 440 -534 440

-562 0 -6 -17 -32 -38 -59 -274 -347 -697 -937 -1317 -1838 -640 -930 -848

-1210 -1315 -1770 -436 -522 -1230 -1392 -1260 -1379 -8 4 -86 13 -174 20

-376 32 -694 108 -1051 249 -173 69 -375 160 -375 170 0 12 28 57 370 595 393

619 597 932 613 942 6 4 8 10 4 14 -30 30 -415 -484 -1041 -1388 -37 -54 -70

-98 -75 -98 -15 0 -291 166 -436 262 -119 80 -343 243 -432 315 -13 10 30 82

273 465 671 1059 909 1426 932 1445 9 7 12 16 8 20 -13 13 -118 -109 -290

-337 -237 -314 -379 -513 -895 -1263 -79 -114 -147 -210 -152 -213 -13 -7 -32

7 -204 160 -172 153 -575 553 -575 572 0 6 49 85 109 175 59 90 269 418 466

729 373 588 683 1071 741 1153 45 62 29 60 -32 -5 -138 -147 -483 -620 -1009

-1383 -318 -462 -378 -545 -390 -541 -46 13 -693 831 -681 861 3 8 49 81 104

162 54 81 263 407 464 723 545 860 771 1208 791 1221 5 4 8 12 5 19 -16 49

-428 -502 -1036 -1385 -293 -426 -421 -605 -432 -605 -20 0 -442 669 -568 900

l-41 75 98 150 c54 83 258 402 453 710 367 579 511 804 664 1035 49 74 91 140

93 145 11 29 -105 -99 -203 -225 -210 -269 -458 -616 -929 -1300 -239 -347

-254 -367 -260 -360 -14 17 -150 287 -230 455 -126 267 -238 532 -341 806 -47

124 -96 250 -111 280 l-25 54 5 -75 c23 -312 254 -1025 539 -1662 l25 -57 -77

-100 c-210 -269 -505 -616 -731 -859 -97 -105 -106 -113 -118 -95 -21 27 -141

267 -225 448 -112 239 -227 513 -321 765 -47 124 -97 250 -111 280 l-26 55 6

-70 c23 -288 217 -920 451 -1468 l85 -199 -114 -117 c-62 -64 -264 -271 -448

-461 -184 -190 -337 -346 -341 -348 -3 -1 -58 105 -121 235 -178 364 -271 580

-413 958 -46 121 -94 245 -108 275 l-26 55 5 -55 c30 -320 227 -967 457 -1500

l54 -125 -46 -51 c-25 -27 -120 -128 -209 -224 -201 -213 -466 -509 -619 -692

-64 -76 -119 -138 -123 -138 -10 0 -286 558 -373 755 -87 197 -176 418 -254

628 -30 81 -67 175 -83 210 -34 74 -37 59 -15 -88 53 -355 274 -1022 514

-1554 34 -74 61 -137 61 -141 0 -3 -48 -69 -106 -146 -220 -289 -538 -750

-550 -800 -11 -43 1 -133 23 -162 10 -15 37 -36 58 -46 35 -17 42 -18 79 -5

31 11 49 27 77 69 20 30 108 163 196 295 187 282 355 517 365 507 3 -4 49 -86

101 -182 109 -202 232 -414 340 -584 l75 -120 -57 -75 c-148 -196 -421 -593

-467 -678 -41 -78 -28 -173 32 -228 21 -20 37 -25 76 -25 43 0 54 4 80 32 17

18 115 161 218 318 103 157 209 313 234 348 l47 63 96 -133 c132 -184 266

-359 395 -516 70 -84 106 -137 102 -145 -5 -6 -53 -73 -108 -147 -163 -219

-415 -600 -422 -637 -12 -64 5 -124 46 -165 32 -33 44 -38 82 -38 60 0 82 19

153 132 156 247 429 643 445 643 5 0 78 -73 162 -162 134 -142 292 -296 466

-456 32 -29 50 -53 45 -60 -4 -7 -48 -66 -98 -132 -215 -282 -504 -705 -525

-770 -24 -73 10 -169 71 -201 42 -21 104 -13 135 18 12 13 76 107 142 210 123

191 273 408 415 601 l79 107 56 -45 c194 -156 502 -375 680 -483 l53 -32 -119

-148 c-165 -205 -394 -513 -543 -732 -190 -280 -202 -300 -202 -363 0 -104 63

-175 145 -164 50 7 76 31 135 126 192 312 548 809 797 1116 l24 30 178 -87

c353 -171 678 -283 1014 -349 63 -12 116 -23 118 -24 1 -1 -64 -94 -145 -206

-81 -112 -242 -346 -359 -519 -167 -249 -214 -326 -224 -369 -48 -201 103

-389 264 -327 60 23 89 58 212 251 440 695 933 1365 1510 2055 l171 205 76 0

c68 0 80 3 119 30 29 21 53 51 75 94 29 56 33 72 33 144 l0 82 162 180 c88 99

253 281 366 403 l204 224 44 -7 c133 -20 238 89 253 262 l6 72 221 238 c505

546 741 802 949 1033 868 963 1447 1692 1992 2510 102 154 245 377 998 1565

369 582 693 1086 710 1103 10 11 27 -9 89 -108 545 -858 847 -1805 917 -2870

15 -229 6 -761 -15 -980 -202 -2021 -1246 -3823 -2944 -5083 -730 -541 -1614

-982 -2552 -1272 -1304 -403 -2760 -546 -4335 -424 -1803 139 -3655 602 -5792

1449 -72 29 -86 31 -111 21 -51 -21 -62 -85 -21 -118 8 -5 118 -51 244 -101

1973 -777 3841 -1242 5580 -1386 438 -37 558 -41 1170 -41 615 0 721 4 1125

41 1384 126 2666 491 3755 1071 1306 696 2349 1678 3075 2898 95 159 285 526

367 708 753 1672 821 3539 186 5147 -152 384 -355 774 -575 1102 -32 48 -58

93 -58 100 0 18 119 196 136 202 17 7 19 36 2 36 -7 0 -52 -41 -100 -90 l-86

-91 -85 114 c-218 293 -600 704 -867 933 -1267 1087 -2895 1675 -4935 1784

-167 9 -976 11 -1125 3z m-1871 -4753 c45 -78 123 -209 175 -293 80 -129 92

-155 82 -169 -105 -150 -849 -998 -875 -998 -24 0 -571 883 -571 922 0 4 71

90 158 191 232 270 374 446 560 693 l167 221 112 -213 c61 -117 148 -276 192

-354z m472 -747 c144 -205 291 -402 436 -580 l123 -153 -87 -107 c-135 -169

-414 -490 -603 -696 -169 -185 -172 -188 -192 -170 -58 52 -408 485 -561 696

l-86 118 142 162 c240 274 541 641 667 814 25 35 48 63 52 63 3 0 53 -66 109

-147z m-1725 -160 c122 -236 210 -393 335 -602 l99 -163 -32 -37 c-59 -67

-823 -851 -830 -851 -16 0 -350 536 -497 798 -52 91 -52 92 -34 115 10 13 180

198 378 412 198 214 385 417 415 451 30 34 58 63 62 63 3 1 50 -83 104 -186z

m2494 -813 c126 -140 459 -476 564 -570 47 -41 85 -80 85 -86 3 -34 -796 -974

-828 -974 -19 0 -300 258 -519 477 l-244 243 39 44 c328 377 528 618 698 843

55 73 102 132 105 130 3 -1 48 -49 100 -107z m-3555 -270 c97 -194 224 -424

342 -624 l95 -158 -44 -47 c-206 -214 -541 -591 -742 -833 -77 -93 -142 -168

-145 -168 -15 0 -401 600 -511 794 -29 52 -31 61 -20 80 24 40 240 304 406

498 151 176 536 608 541 608 2 0 37 -68 78 -150z m1716 -16 c106 -157 316

-441 442 -597 57 -70 85 -113 80 -121 -16 -27 -818 -846 -828 -846 -20 1 -352

412 -539 668 l-97 133 248 267 c137 147 324 349 417 450 93 100 172 182 177

182 4 0 49 -61 100 -136z m2803 -627 c166 -135 374 -286 553 -401 l122 -79

-60 -81 c-187 -256 -524 -674 -661 -821 l-53 -57 -135 77 c-218 124 -517 327

-739 501 -12 9 12 42 129 180 182 213 428 522 556 697 97 132 99 134 120 118

12 -9 87 -69 168 -134z m-1992 -402 c150 -166 354 -376 496 -510 l94 -87 -49

-52 c-55 -58 -234 -244 -545 -564 l-217 -223 -138 122 c-151 134 -596 577

-591 589 2 4 163 180 358 391 459 496 453 490 455 487 1 -2 63 -70 137 -153z

m-1841 -117 c123 -179 277 -389 400 -544 49 -62 89 -116 89 -121 0 -6 -42 -55

-92 -109 -287 -308 -468 -512 -657 -742 l-126 -153 -49 53 c-195 213 -581 701

-570 721 13 21 234 298 338 422 218 262 541 625 556 625 4 0 54 -68 111 -152z

m4730 -89 c218 -123 544 -267 789 -349 134 -45 394 -114 473 -125 26 -4 47

-11 45 -15 -2 -4 -178 -188 -393 -409 -265 -273 -396 -401 -410 -401 -12 0

-75 7 -140 16 -258 33 -554 108 -810 204 -132 49 -354 145 -367 158 -3 4 34

57 84 117 128 156 418 545 532 713 54 78 99 142 102 142 2 0 45 -23 95 -51z

m-2018 -633 c157 -131 383 -299 569 -423 l159 -106 -63 -66 c-447 -472 -703

-731 -717 -726 -9 3 -68 36 -131 73 -197 114 -483 311 -700 481 l-25 20 46 48

c58 61 388 418 583 631 82 89 153 162 158 162 5 0 59 -42 121 -94z m-1952

-253 c52 -60 207 -223 345 -363 l252 -255 -81 -85 c-194 -205 -442 -480 -596

-657 -91 -106 -168 -193 -171 -193 -19 1 -440 384 -608 553 l-103 104 152 189

c247 306 689 814 708 814 5 0 51 -48 102 -107z m3050 -483 c313 -160 564 -261

844 -340 83 -24 152 -44 154 -46 2 -2 -97 -110 -220 -241 -123 -131 -268 -286

-322 -345 l-99 -107 -46 5 c-233 27 -528 96 -761 176 -130 45 -454 178 -469

192 -3 4 6 19 20 34 150 162 497 544 586 645 63 70 115 127 116 127 2 0 90

-45 197 -100z m-2135 -406 c160 -134 406 -318 561 -420 67 -43 121 -82 120

-85 -1 -4 -106 -117 -233 -250 -217 -229 -408 -436 -516 -558 l-48 -53 -140

78 c-224 124 -690 431 -690 455 0 25 794 939 815 939 3 0 61 -48 131 -106z

m956 -665 c92 -55 381 -196 519 -254 143 -61 447 -165 542 -186 32 -7 60 -16

63 -20 3 -5 -52 -75 -122 -156 -69 -81 -197 -235 -283 -341 -139 -172 -159

-192 -181 -188 -14 3 -86 10 -160 16 -237 19 -455 59 -705 131 -134 39 -393

133 -463 168 l-34 17 147 167 c80 92 244 273 363 403 119 130 224 244 232 255

20 24 21 24 82 -12z"/>

        <path d="M7551 17844 c-177 -48 -329 -205 -370 -384 -20 -84 -13 -198 15 -275

27 -73 60 -181 69 -227 3 -15 14 -29 26 -33 11 -4 19 -10 17 -15 -2 -5 -38

-36 -80 -69 -142 -112 -281 -292 -633 -821 -241 -362 -291 -432 -454 -632

-125 -153 -322 -344 -422 -411 -250 -166 -514 -231 -831 -207 -368 28 -637

147 -862 380 -178 185 -255 389 -243 650 10 222 32 288 188 555 58 100 103

163 158 221 42 44 116 125 166 179 49 54 180 174 290 265 110 92 206 174 214

183 12 15 11 17 -6 17 -32 0 -124 -30 -185 -61 -32 -16 -145 -87 -251 -158

-174 -117 -205 -141 -318 -259 -121 -126 -273 -312 -352 -430 -84 -127 -136

-313 -144 -518 -6 -153 5 -233 52 -381 93 -286 324 -552 605 -693 269 -135

659 -210 946 -180 403 41 746 221 1035 541 193 215 256 299 572 769 291 432

377 553 479 675 134 161 251 238 414 274 50 10 131 35 180 53 236 89 341 226

361 473 11 135 -46 277 -156 386 -128 127 -312 178 -480 133z m239 -241 c69

-30 105 -64 137 -128 53 -102 38 -247 -33 -325 -55 -60 -87 -76 -244 -115 -80

-20 -153 -38 -164 -42 -16 -4 -18 -1 -12 20 4 17 -7 60 -35 133 -39 105 -41

113 -37 199 3 57 11 104 22 127 47 99 177 175 276 161 19 -3 60 -16 90 -30z"/>

        <path d="M21212 12755 c-894 -110 -1076 -135 -1092 -150 -27 -25 -26 -54 15

-295 32 -189 36 -207 61 -228 21 -19 34 -22 63 -18 20 4 497 62 1061 131 564

69 1033 128 1043 131 10 3 24 16 33 28 13 21 12 46 -15 255 -30 237 -37 263

-79 273 -9 3 -500 -55 -1090 -127z m1099 -152 c15 -115 25 -209 25 -210 -2 -2

-2005 -249 -2076 -256 -24 -2 -25 -1 -59 206 -19 114 -32 209 -30 211 6 5

2028 253 2074 255 l41 1 25 -207z"/>

        <path d="M21275 11824 c-313 -48 -502 -184 -581 -419 -23 -67 -28 -103 -32

-216 -6 -168 11 -253 73 -377 24 -47 41 -90 39 -94 -3 -5 -23 -17 -45 -28 -25

-13 -41 -29 -45 -47 -4 -14 -2 -99 4 -187 10 -155 11 -161 37 -183 l26 -23

1043 0 c1040 0 1043 0 1070 21 l26 20 0 243 c0 314 24 286 -249 286 -190 0

-203 1 -196 18 26 60 47 161 52 252 8 138 -13 245 -69 359 -99 205 -318 338

-623 380 -106 15 -421 12 -530 -5z m551 -69 c155 -27 255 -64 356 -131 172

-115 257 -300 244 -529 -8 -146 -33 -225 -97 -306 -16 -20 -29 -38 -29 -40 0

-2 117 -3 260 -1 l260 3 0 -216 0 -215 -1024 0 -1024 0 -6 28 c-2 15 -8 82

-11 149 -8 137 -17 118 88 177 l47 27 -35 47 c-85 110 -125 239 -125 402 0

360 171 544 558 605 124 19 427 19 538 0z"/>

        <path d="M21428 11330 c-224 -21 -308 -88 -324 -255 -11 -116 29 -233 104

-302 l25 -23 357 0 358 0 51 56 c58 63 81 125 81 216 0 168 -79 254 -269 293

-88 18 -275 25 -383 15z m352 -81 c126 -20 198 -67 219 -144 25 -92 8 -181

-46 -245 l-35 -40 -327 0 -327 0 -27 28 c-54 56 -77 160 -57 257 15 75 48 108

126 131 99 29 332 36 474 13z"/>

        <path d="M21982 9809 c-131 -17 -218 -139 -230 -322 -6 -97 13 -153 73 -212

54 -55 135 -85 241 -92 72 -5 88 -3 136 19 33 15 66 40 83 62 62 81 100 254

76 343 -36 133 -206 224 -379 202z m208 -105 c92 -49 122 -117 102 -232 -13

-81 -55 -165 -94 -193 -61 -44 -206 -33 -293 22 -84 53 -106 149 -65 282 38

123 89 159 215 154 66 -3 90 -8 135 -33z"/>

        <path d="M20732 9155 c-134 -30 -248 -103 -329 -209 -56 -74 -125 -217 -148

-305 -22 -85 -30 -214 -17 -281 6 -30 9 -56 7 -58 -1 -1 -26 -7 -55 -11 -32

-5 -59 -16 -66 -26 -7 -10 -36 -87 -65 -172 -45 -136 -50 -157 -39 -183 6 -16

17 -31 23 -33 301 -128 1928 -777 1947 -777 15 0 34 8 44 18 16 19 186 427

186 449 0 40 -66 74 -378 194 -23 9 -23 10 22 62 56 63 126 195 157 297 33

105 33 266 2 365 -47 148 -168 297 -327 404 -152 103 -422 215 -616 256 -108

23 -271 28 -348 10z m333 -79 c153 -32 367 -113 508 -192 95 -53 218 -153 273

-221 62 -78 111 -183 126 -270 37 -221 -99 -524 -274 -614 -38 -19 -41 -23

-23 -30 11 -5 120 -47 243 -95 122 -48 222 -92 222 -99 0 -11 -147 -375 -154

-383 -4 -3 -1885 754 -1894 763 -5 5 63 234 79 266 5 10 27 19 56 23 26 4 62

9 79 12 l32 6 -16 56 c-25 89 -22 249 7 342 97 315 289 468 571 455 52 -2 127

-11 165 -19z"/>

        <path d="M20795 8636 c-63 -29 -130 -126 -156 -229 -15 -63 -7 -163 19 -212

20 -39 22 -40 346 -171 363 -147 346 -143 438 -85 117 75 182 265 127 378 -26

54 -111 132 -196 179 -80 45 -257 116 -344 138 -78 19 -193 20 -234 2z m295

-95 c211 -71 386 -180 420 -261 41 -98 -52 -280 -156 -306 -15 -4 -125 35

-327 117 l-305 123 -13 43 c-25 92 16 230 88 293 36 32 38 32 117 28 55 -3

112 -15 176 -37z"/>

        <path d="M20115 7484 c-11 -2 -45 -9 -75 -15 -73 -14 -201 -77 -272 -133 -167

-133 -315 -403 -334 -607 -12 -142 40 -313 140 -453 101 -141 306 -306 506

-406 174 -87 294 -115 457 -108 192 9 316 69 479 232 102 103 197 233 259 355

44 89 101 243 116 316 21 104 21 104 -171 200 -94 47 -182 85 -198 85 -40 0

-59 -26 -83 -111 -11 -41 -42 -121 -70 -178 -105 -221 -226 -341 -345 -341

-52 0 -124 18 -124 32 0 4 108 168 241 364 132 196 244 365 248 377 13 33 -2

60 -61 109 -227 192 -541 316 -713 282z m234 -95 c122 -33 324 -145 435 -241

l39 -34 -267 -397 -267 -398 68 -31 c98 -45 199 -50 277 -15 138 64 289 279

363 517 14 47 27 86 28 88 2 2 71 -31 155 -73 l152 -76 -6 -35 c-12 -63 -57

-188 -100 -280 -125 -263 -338 -487 -528 -554 -45 -16 -95 -24 -173 -27 -95

-4 -124 -1 -208 21 -199 51 -410 178 -583 351 -98 98 -117 123 -158 206 -102

206 -95 385 21 599 124 229 308 373 518 403 50 8 156 -3 234 -24z"/>

        <path d="M20063 7015 c-133 -67 -216 -252 -166 -366 22 -49 127 -169 149 -169

11 0 315 438 330 476 3 6 -28 26 -68 44 -101 47 -174 51 -245 15z m177 -61

l41 -16 -17 -27 c-9 -14 -64 -95 -121 -179 -117 -171 -111 -168 -165 -83 -33

53 -36 98 -8 160 61 134 161 188 270 145z"/>

        <path d="M18577 6498 c-28 -22 -277 -352 -283 -377 -4 -13 -3 -34 2 -46 8 -21

1631 -1390 1661 -1402 35 -14 67 13 190 159 70 84 138 165 151 182 31 42 28

76 -10 113 -18 18 -395 336 -838 707 -602 505 -811 676 -831 676 -14 0 -33 -6

-42 -12z m838 -726 c429 -360 792 -666 807 -681 l27 -26 -135 -162 -135 -163

-253 213 c-139 116 -503 421 -809 677 -306 256 -555 469 -554 473 6 23 253

334 262 329 5 -3 361 -300 790 -660z"/>

        <path d="M18499 5593 c-70 -48 -379 -317 -385 -335 -3 -11 20 -166 52 -345

l57 -326 -34 -28 c-19 -16 -38 -28 -44 -28 -5 0 -156 175 -335 390 -210 252

-333 391 -349 395 -13 4 -34 3 -47 -2 -12 -5 -97 -78 -188 -162 -142 -131

-166 -157 -166 -182 0 -32 -48 26 904 -1108 469 -559 490 -582 522 -582 29 0

58 20 192 131 86 72 167 142 180 156 44 48 36 62 -175 314 -109 130 -205 244

-213 253 -13 16 -11 21 20 47 19 16 39 29 45 29 5 0 163 -67 351 -150 188 -82

351 -150 363 -150 30 0 420 327 428 359 14 58 5 63 -472 262 -247 104 -454

190 -458 191 -4 2 -38 193 -75 426 -45 281 -73 427 -82 436 -25 25 -63 28 -91

9z m51 -130 c6 -38 37 -230 68 -427 l57 -360 460 -192 c252 -106 460 -196 461

-200 2 -8 -86 -85 -297 -258 l-56 -46 -361 159 -361 158 -78 -64 c-43 -36 -79

-68 -80 -72 -2 -3 99 -127 223 -275 124 -147 223 -270 221 -273 -33 -32 -314

-262 -319 -260 -4 1 -311 364 -683 807 l-675 805 58 55 c167 158 254 233 260

224 16 -24 674 -804 683 -809 9 -6 131 86 158 119 7 9 -6 106 -49 346 -33 183

-57 336 -54 339 18 19 340 289 346 290 3 1 11 -29 18 -66z"/>

        <path d="M17095 4414 c-114 -25 -243 -72 -355 -130 -366 -190 -490 -492 -334

-812 65 -133 177 -228 314 -265 99 -28 175 -29 345 -7 88 12 191 22 229 23 60

1 71 -2 87 -22 23 -28 24 -43 4 -80 -40 -78 -278 -167 -475 -178 -117 -6 -140

-17 -140 -67 0 -43 109 -356 133 -383 18 -20 30 -23 91 -23 148 0 312 43 485

126 137 65 217 121 296 206 178 190 199 418 63 681 -69 132 -171 216 -309 252

-76 21 -242 18 -389 -5 -143 -23 -231 -25 -248 -8 -19 19 -14 57 12 83 57 57

266 134 421 156 96 14 125 31 125 73 0 32 -118 356 -138 379 -19 22 -115 22

-217 1z m227 -211 c32 -86 57 -157 55 -159 -1 -1 -43 -9 -93 -18 -149 -25

-328 -92 -407 -150 -72 -53 -89 -141 -38 -198 26 -29 35 -33 97 -36 39 -2 130

6 207 17 251 38 382 25 497 -49 133 -86 240 -346 211 -512 -16 -93 -62 -180

-132 -254 -155 -160 -462 -295 -683 -298 l-88 -1 -54 155 c-29 85 -53 158 -53

161 -1 3 41 9 92 12 163 11 372 82 467 157 74 59 88 158 32 221 -41 45 -96 53

-256 33 -72 -8 -165 -20 -206 -25 -231 -28 -414 64 -505 252 -44 92 -58 164

-53 261 9 148 109 295 277 403 150 97 388 179 531 184 l45 1 57 -157z"/>

        <path d="M7374 4226 c-67 -15 -150 -54 -203 -95 -47 -35 -115 -130 -137 -188

-9 -27 -21 -52 -25 -57 -4 -4 -32 -1 -62 8 -79 23 -123 21 -141 -6 -8 -13 -35

-96 -61 -185 -58 -203 -57 -206 58 -241 42 -13 77 -26 77 -31 0 -4 -79 -281

-175 -617 -190 -661 -188 -649 -127 -673 65 -25 424 -122 443 -119 12 2 30 14

40 28 10 14 95 295 190 625 94 330 173 602 174 603 2 2 67 -14 145 -37 78 -22

149 -37 158 -34 38 14 52 42 98 204 63 222 69 209 -125 266 -78 22 -145 43

-147 46 -2 2 4 15 15 28 30 37 111 32 227 -15 101 -40 111 -41 137 -21 19 13

127 279 127 310 0 29 -20 54 -64 80 -178 104 -457 159 -622 121z"/>

        <path d="M15830 3804 c-30 -8 -89 -31 -130 -51 -91 -44 -192 -141 -235 -225

-17 -32 -33 -58 -37 -58 -4 0 -17 18 -27 39 -28 53 -48 71 -80 71 -30 0 -335

-132 -363 -157 -10 -9 -18 -27 -18 -39 0 -39 589 -1567 612 -1587 11 -9 29

-17 40 -17 29 0 426 155 449 176 10 9 19 28 19 41 0 13 -67 198 -149 412 -176

456 -181 473 -181 565 0 164 111 273 311 305 72 12 99 32 99 75 0 49 -126 438

-146 453 -23 17 -94 16 -164 -3z"/>

        <path d="M12806 3495 l-209 -11 -24 -28 c-24 -28 -24 -29 -23 -255 1 -124 -2

-225 -7 -224 -4 1 -35 14 -69 27 -84 35 -190 50 -304 42 -180 -11 -295 -60

-406 -170 -160 -161 -234 -396 -234 -748 0 -260 30 -428 105 -584 107 -223

282 -330 555 -341 154 -7 253 11 360 65 41 20 78 38 81 40 4 1 12 -11 19 -28

7 -17 21 -35 31 -40 10 -6 101 -10 202 -10 167 0 187 2 208 19 l24 19 3 1084

c2 760 -1 1091 -9 1109 -11 28 -48 50 -77 48 -9 -1 -111 -7 -226 -14z m-345

-984 c96 -37 89 -7 89 -401 l0 -347 -22 -20 c-50 -45 -89 -57 -183 -58 -194 0

-238 76 -239 420 0 213 18 307 70 364 18 21 48 43 66 48 56 18 163 15 219 -6z"/>

        <path d="M8414 3401 c-296 -80 -487 -337 -566 -760 -30 -161 -29 -382 1 -496

83 -317 305 -496 714 -577 132 -26 375 -30 496 -9 107 19 117 31 125 162 3 57

9 145 12 195 6 84 4 94 -14 112 -20 20 -29 20 -204 15 -160 -5 -195 -3 -282

16 -177 36 -260 93 -292 197 -19 64 -18 94 3 94 9 0 202 -36 429 -80 226 -44

422 -80 436 -80 40 0 57 30 87 151 55 217 64 417 26 564 -46 180 -173 333

-345 418 -134 66 -232 88 -410 93 -121 3 -157 1 -216 -15z m339 -492 c80 -21

137 -99 137 -188 0 -29 -3 -33 -22 -28 -13 3 -109 22 -215 42 l-192 37 23 47

c54 104 124 128 269 90z"/>

        <path d="M14017 3225 c-244 -46 -432 -155 -535 -309 -96 -143 -128 -275 -119

-495 8 -205 51 -388 132 -560 110 -231 276 -381 480 -436 251 -66 643 11 927

182 99 59 128 85 128 115 0 34 -120 349 -143 376 -27 30 -61 28 -116 -7 -75

-48 -210 -108 -306 -137 -124 -37 -269 -40 -333 -6 -44 23 -114 107 -109 131

1 10 128 43 432 113 255 59 437 106 448 115 22 21 22 67 -3 195 -91 474 -327

722 -695 734 -70 2 -139 -2 -188 -11z m218 -501 c32 -15 76 -69 88 -109 6 -19

-7 -23 -181 -63 -103 -23 -197 -45 -209 -48 -22 -6 -23 -3 -23 42 1 122 84

191 233 193 35 1 73 -6 92 -15z"/>

        <path d="M10254 3075 c-280 -61 -474 -295 -548 -660 -38 -188 -38 -438 0 -593

22 -89 84 -221 134 -285 205 -260 669 -370 1122 -266 138 32 132 21 129 245

-3 253 -11 267 -128 246 -275 -50 -492 -33 -615 48 -52 34 -86 93 -95 162 l-6

41 34 -5 c19 -3 222 -25 453 -49 l418 -43 23 26 c51 60 78 442 42 604 -64 287

-252 465 -560 528 -94 20 -316 20 -403 1z m371 -509 c52 -31 84 -86 85 -143 0

-40 10 -40 -235 -13 -99 11 -183 20 -187 20 -4 0 -1 18 7 39 36 102 87 134

206 128 61 -3 86 -9 124 -31z"/>

    </g>

</svg>
